# xmcd
#
# Track frame offsets:
#	150
#	12424
#	24812
#	38967
#	48679
#	62785
#	85849
#	104541
#	116921
#	129246
#	139518
#	152200
#
# Disc length: 2222 seconds
#
# Revision: 0
# Processed by: cddbd v1.5.2PL0 Copyright (c) Steve Scherf et al.
# Submitted via: audiograbber 1.83.01
#
DISCID=9e08ac0c
DTITLE=Cale, J.J. - 5
DYEAR=1900
DGENRE=
TTITLE0=Thirteen Days
TTITLE1=Boilin' Pot
TTITLE2=I'll Make Love To You Anytime
TTITLE3=Don't Cry Sister
TTITLE4=Too Much For Me
TTITLE5=Sensitive Kind
TTITLE6=Friday
TTITLE7=Lou-Easy-Ann
TTITLE8=Let's Go To Tahiti
TTITLE9=Out Of Style
TTITLE10=Fate Of A Fool
TTITLE11=Mona
EXTD=
EXTT0=
EXTT1=
EXTT2=
EXTT3=
EXTT4=
EXTT5=
EXTT6=
EXTT7=
EXTT8=
EXTT9=
EXTT10=
EXTT11=
PLAYORDER=
